<?xml version="1.0" encoding="UTF-8" standalone="no"?>
<!-- Created with PhysiCell (http://PhysiCell.MathCancer.org/) -->
<svg 
 xmlns:dc="http://purl.org/dc/elements/1.1/" 
 xmlns:cc="http://creativecommons.org/ns#" 
 xmlns:rdf="http://www.w3.org/1999/02/22-rdf-syntax-ns#" 
 xmlns:svg="http://www.w3.org/2000/svg" 
 xmlns="http://www.w3.org/2000/svg" 
 version="1.1" 
 width="1440" 
 height="910" 
 id="svg2">
  <circle cx="32.5" cy="32.5" r="25" stroke-width="1" stroke="black" fill="grey"/>
  <circle cx="32.5" cy="32.5" r="12.5" stroke-width="1" stroke="grey" fill="grey"/>
  <text x="72.5" y="45.25"
   font-family="Arial" font-size="42.5" fill="black" >
   endothelial
  </text>
  <circle cx="32.5" cy="97.5" r="25" stroke-width="1" stroke="black" fill="grey"/>
  <circle cx="32.5" cy="97.5" r="12.5" stroke-width="1" stroke="grey" fill="grey"/>
  <text x="72.5" y="110.25"
   font-family="Arial" font-size="42.5" fill="black" >
   vascular_smooth_muscle
  </text>
  <circle cx="32.5" cy="162.5" r="25" stroke-width="1" stroke="black" fill="grey"/>
  <circle cx="32.5" cy="162.5" r="12.5" stroke-width="1" stroke="grey" fill="grey"/>
  <text x="72.5" y="175.25"
   font-family="Arial" font-size="42.5" fill="black" >
   parietal_epithelial
  </text>
  <circle cx="32.5" cy="227.5" r="25" stroke-width="1" stroke="black" fill="grey"/>
  <circle cx="32.5" cy="227.5" r="12.5" stroke-width="1" stroke="grey" fill="grey"/>
  <text x="72.5" y="240.25"
   font-family="Arial" font-size="42.5" fill="black" >
   podocyte
  </text>
  <circle cx="32.5" cy="292.5" r="25" stroke-width="1" stroke="black" fill="grey"/>
  <circle cx="32.5" cy="292.5" r="12.5" stroke-width="1" stroke="grey" fill="grey"/>
  <text x="72.5" y="305.25"
   font-family="Arial" font-size="42.5" fill="black" >
   parietal_basement_membrane
  </text>
  <circle cx="32.5" cy="357.5" r="25" stroke-width="1" stroke="black" fill="grey"/>
  <circle cx="32.5" cy="357.5" r="12.5" stroke-width="1" stroke="grey" fill="grey"/>
  <text x="72.5" y="370.25"
   font-family="Arial" font-size="42.5" fill="black" >
   proximal_tube_epithelial
  </text>
  <circle cx="32.5" cy="422.5" r="25" stroke-width="1" stroke="black" fill="grey"/>
  <circle cx="32.5" cy="422.5" r="12.5" stroke-width="1" stroke="grey" fill="grey"/>
  <text x="72.5" y="435.25"
   font-family="Arial" font-size="42.5" fill="black" >
   glomerular_basement_membrane
  </text>
  <circle cx="32.5" cy="487.5" r="25" stroke-width="1" stroke="black" fill="grey"/>
  <circle cx="32.5" cy="487.5" r="12.5" stroke-width="1" stroke="grey" fill="grey"/>
  <text x="72.5" y="500.25"
   font-family="Arial" font-size="42.5" fill="black" >
   glomerular_capillary_endothelial
  </text>
  <circle cx="32.5" cy="552.5" r="25" stroke-width="1" stroke="black" fill="grey"/>
  <circle cx="32.5" cy="552.5" r="12.5" stroke-width="1" stroke="grey" fill="grey"/>
  <text x="72.5" y="565.25"
   font-family="Arial" font-size="42.5" fill="black" >
   glomerular_mesangial
  </text>
  <circle cx="32.5" cy="617.5" r="25" stroke-width="1" stroke="black" fill="grey"/>
  <circle cx="32.5" cy="617.5" r="12.5" stroke-width="1" stroke="grey" fill="grey"/>
  <text x="72.5" y="630.25"
   font-family="Arial" font-size="42.5" fill="black" >
   extraglomerular_mesangial
  </text>
  <circle cx="32.5" cy="682.5" r="25" stroke-width="1" stroke="black" fill="grey"/>
  <circle cx="32.5" cy="682.5" r="12.5" stroke-width="1" stroke="grey" fill="grey"/>
  <text x="72.5" y="695.25"
   font-family="Arial" font-size="42.5" fill="black" >
   macula_densa
  </text>
  <circle cx="32.5" cy="747.5" r="25" stroke-width="1" stroke="black" fill="grey"/>
  <circle cx="32.5" cy="747.5" r="12.5" stroke-width="1" stroke="grey" fill="grey"/>
  <text x="72.5" y="760.25"
   font-family="Arial" font-size="42.5" fill="black" >
   juxtaglomerular_granule
  </text>
  <circle cx="32.5" cy="812.5" r="25" stroke-width="1" stroke="black" fill="grey"/>
  <circle cx="32.5" cy="812.5" r="12.5" stroke-width="1" stroke="grey" fill="grey"/>
  <text x="72.5" y="825.25"
   font-family="Arial" font-size="42.5" fill="black" >
   mesangial_matrix
  </text>
  <circle cx="32.5" cy="877.5" r="25" stroke-width="1" stroke="black" fill="grey"/>
  <circle cx="32.5" cy="877.5" r="12.5" stroke-width="1" stroke="grey" fill="grey"/>
  <text x="72.5" y="890.25"
   font-family="Arial" font-size="42.5" fill="black" >
   capillary
  </text>
</svg>
